<svg width="40" height="45" viewBox="0 0 40 45" fill="none" xmlns="http://www.w3.org/2000/svg">
<path d="M31.9486 33.9605L39.7728 41.3685C40.0757 41.6553 40.0757 42.119 39.7728 42.4058L38.3163 43.7849C38.0133 44.0717 37.5235 44.0717 37.2206 43.7849L29.3964 36.3769C29.2546 36.2366 29.1708 36.0535 29.1708 35.8582V35.0527L30.55 33.7469H31.4008C31.607 33.7469 31.8004 33.8201 31.9486 33.9605Z" fill="#E51C44"/>
<path d="M24.9888 39.7778H17.9526C14.4566 39.7778 11.7572 39.0423 9.85431 37.5715C7.95144 36.1006 7 33.9818 7 31.2151V14.5626C7 11.796 7.95144 9.67721 9.85431 8.20632C11.7572 6.73544 14.4566 6 17.9526 6H24.9888C28.4405 6 31.1178 6.75295 33.0207 8.25886C34.9236 9.72974 35.875 11.831 35.875 14.5626V16.1386C35.875 16.909 35.4103 17.2943 34.481 17.2943H28.8388C27.9095 17.2943 27.4448 16.909 27.4448 16.1386V14.8778C27.4448 13.7572 27.1572 12.9692 26.5819 12.5139C26.0066 12.0236 25.0109 11.7785 23.5948 11.7785H19.2802C17.9083 11.7785 16.9126 12.0236 16.2931 12.5139C15.7178 12.9692 15.4302 13.7572 15.4302 14.8778V30.8999C15.4302 32.0206 15.7178 32.8261 16.2931 33.3164C16.9126 33.7717 17.9083 33.9993 19.2802 33.9993H23.5948C25.0109 33.9993 26.0066 33.7717 26.5819 33.3164C27.1572 32.8261 27.4448 32.0206 27.4448 30.8999V27.5905C27.4448 27.2052 27.2014 27.0126 26.7147 27.0126H22.7319C21.8026 27.0126 21.3379 26.6449 21.3379 25.9095V22.3373C21.3379 21.6019 21.8026 21.2341 22.7319 21.2341H34.3483C35.3661 21.2341 35.875 21.6369 35.875 22.4424V31.2151C35.875 33.9468 34.9236 36.0655 33.0207 37.5715C31.1178 39.0423 28.4405 39.7778 24.9888 39.7778Z" fill="#E51C44"/>
<rect x="2" y="33.0393" width="19.3717" height="1.65452" rx="0.82726" transform="rotate(-38.4249 2 33.0393)" fill="#1D2452"/>
<rect x="1.22571" y="29.3238" width="19.3717" height="1.63687" rx="0.818437" transform="rotate(-38.4249 1.22571 29.3238)" fill="#1D2452"/>
<rect x="1.28192" y="25.3947" width="33.4827" height="1.54642" rx="0.773212" transform="rotate(-38.4249 1.28192 25.3947)" fill="#1D2452"/>
<rect x="1.28833" y="21.3868" width="29.0003" height="1.53602" rx="0.76801" transform="rotate(-38.4249 1.28833 21.3868)" fill="#1D2452"/>
<rect x="0.261292" y="18.3527" width="29.0003" height="1.57957" rx="0.789787" transform="rotate(-38.4249 0.261292 18.3527)" fill="#1D2452"/>
<rect x="1.03821" y="38.0875" width="19.3717" height="1.93854" rx="0.969269" transform="rotate(-38.4249 1.03821 38.0875)" fill="#1D2452"/>
<path d="M4.78518 44.0291C4.53033 43.7078 4.58416 43.2408 4.90542 42.9859L18.9183 31.8695C19.2396 31.6147 19.7066 31.6685 19.9615 31.9898C20.2163 32.311 20.1625 32.7781 19.8412 33.0329L5.82833 44.1493C5.50707 44.4042 5.04004 44.3503 4.78518 44.0291Z" fill="#1D2452"/>
<path d="M8.46145 44.621C8.2066 44.2997 8.26043 43.8327 8.58169 43.5779L22.5946 32.4614C22.9158 32.2066 23.3829 32.2604 23.6377 32.5817C23.8926 32.9029 23.8387 33.37 23.5175 33.6248L9.5046 44.7412C9.18334 44.9961 8.71631 44.9423 8.46145 44.621Z" fill="#1D2452"/>
<rect x="3" y="41.0393" width="19.3717" height="1.485" rx="0.742499" transform="rotate(-38.4249 3 41.0393)" fill="#1D2452"/>
</svg>
