<svg width="798" height="159" viewBox="0 0 798 159" fill="none" xmlns="http://www.w3.org/2000/svg">
<rect width="798" height="159" fill="#161C45"/>
<path d="M288.493 99.2037L301.193 110.859C301.684 111.311 301.684 112.04 301.193 112.492L298.829 114.662C298.337 115.113 297.542 115.113 297.05 114.662L284.351 103.006C284.121 102.785 283.985 102.497 283.985 102.19V100.922L286.223 98.8676H287.604C287.939 98.8676 288.253 98.9829 288.493 99.2037Z" fill="#E51C44"/>
<path d="M277.197 108.357H265.777C260.103 108.357 255.721 107.2 252.633 104.885C249.544 102.571 248 99.2373 248 94.8842V68.683C248 64.3299 249.544 60.9963 252.633 58.682C255.721 56.3677 260.103 55.2105 265.777 55.2105H277.197C282.8 55.2105 287.145 56.3952 290.233 58.7646C293.322 61.0789 294.866 64.385 294.866 68.683V71.1626C294.866 72.3749 294.112 72.981 292.604 72.981H283.446C281.938 72.981 281.183 72.3749 281.183 71.1626V69.1789C281.183 67.4157 280.717 66.1759 279.783 65.4595C278.849 64.6881 277.233 64.3024 274.935 64.3024H267.932C265.705 64.3024 264.089 64.6881 263.083 65.4595C262.15 66.1759 261.683 67.4157 261.683 69.1789V94.3883C261.683 96.1515 262.15 97.4189 263.083 98.1903C264.089 98.9067 265.705 99.2648 267.932 99.2648H274.935C277.233 99.2648 278.849 98.9067 279.783 98.1903C280.717 97.4189 281.183 96.1515 281.183 94.3883V89.1811C281.183 88.575 280.788 88.2719 279.998 88.2719H273.534C272.026 88.2719 271.272 87.6933 271.272 86.5362V80.9157C271.272 79.7586 272.026 79.18 273.534 79.18H292.388C294.04 79.18 294.866 79.8137 294.866 81.0811V94.8842C294.866 99.1822 293.322 102.516 290.233 104.885C287.145 107.2 282.8 108.357 277.197 108.357Z" fill="#E51C44"/>
<rect width="31.0737" height="2.63528" rx="1.31764" transform="matrix(0.792703 -0.609608 0.633311 0.773898 239.885 97.7543)" fill="#161C45"/>
<rect width="31.0737" height="2.60717" rx="1.30359" transform="matrix(0.792703 -0.609608 0.633311 0.773897 238.628 91.9083)" fill="#161C45"/>
<rect width="53.7086" height="2.4631" rx="1.23155" transform="matrix(0.792703 -0.609608 0.633311 0.773897 238.719 85.7261)" fill="#161C45"/>
<rect width="46.5185" height="2.44653" rx="1.22327" transform="matrix(0.792703 -0.609608 0.633311 0.773897 238.73 79.4202)" fill="#161C45"/>
<rect width="46.5185" height="2.51591" rx="1.25795" transform="matrix(0.792703 -0.609608 0.633311 0.773897 237.062 74.6463)" fill="#161C45"/>
<rect width="31.0737" height="3.08765" rx="1.54383" transform="matrix(0.792703 -0.609608 0.633311 0.773897 238.324 105.697)" fill="#161C45"/>
<path d="M244.405 115.046C243.992 114.54 244.076 113.808 244.594 113.41L267.351 95.9088C267.869 95.5106 268.624 95.5976 269.037 96.103V96.103C269.451 96.6085 269.367 97.3411 268.849 97.7392L246.092 115.24C245.574 115.638 244.819 115.551 244.405 115.046V115.046Z" fill="#161C45"/>
<path d="M250.372 115.977C249.958 115.472 250.043 114.739 250.561 114.341L273.318 96.84C273.836 96.4418 274.591 96.5288 275.004 97.0343V97.0343C275.418 97.5397 275.333 98.2723 274.816 98.6704L252.058 116.171C251.541 116.569 250.786 116.482 250.372 115.977V115.977Z" fill="#161C45"/>
<rect width="31.0737" height="2.36527" rx="1.18263" transform="matrix(0.792703 -0.609608 0.633311 0.773897 241.508 110.342)" fill="#161C45"/>
<path d="M315.637 73.607H321.242V104H315.637V101.571C315.097 103.19 313.81 104 311.776 104H309.533C305.797 104 303.928 102.173 303.928 98.5193V79.15C303.928 75.4547 305.797 73.607 309.533 73.607H311.776C313.81 73.607 315.097 74.4167 315.637 76.036V73.607ZM311.402 99.4535H313.582C314.329 99.4535 314.848 99.2874 315.139 98.9553C315.471 98.6231 315.637 98.0626 315.637 97.2737V80.3333C315.637 79.5444 315.471 78.9839 315.139 78.6518C314.848 78.3196 314.329 78.1535 313.582 78.1535H311.402C310.655 78.1535 310.156 78.2781 309.907 78.5272C309.658 78.7348 309.533 79.2123 309.533 79.9596V97.6474C309.533 98.3947 309.658 98.893 309.907 99.1421C310.156 99.3497 310.655 99.4535 311.402 99.4535ZM347.92 73.607H350.1C353.837 73.607 355.705 75.4547 355.705 79.15V104H350.1V79.9596C350.1 79.2123 349.976 78.7348 349.726 78.5272C349.519 78.2781 349.041 78.1535 348.294 78.1535H346.052C344.723 78.1535 344.059 78.8801 344.059 80.3333V104H338.454V79.9596C338.454 79.2123 338.329 78.7348 338.08 78.5272C337.831 78.2781 337.333 78.1535 336.585 78.1535H334.405C333.658 78.1535 333.118 78.3196 332.786 78.6518C332.495 78.9839 332.35 79.5444 332.35 80.3333V104H326.745V73.607H332.35V76.036C332.89 74.4167 334.177 73.607 336.211 73.607H338.391C341.049 73.607 342.772 74.5412 343.561 76.4096C344.059 74.5412 345.512 73.607 347.92 73.607ZM366.533 73.607H372.636C376.539 73.607 378.491 75.4547 378.491 79.15V90.5474H366.222V97.7719C366.222 98.4778 366.346 98.9553 366.595 99.2044C366.844 99.4535 367.343 99.5781 368.09 99.5781H370.955C371.702 99.5781 372.2 99.4535 372.45 99.2044C372.699 98.9553 372.823 98.457 372.823 97.7096V95.2184H378.304V98.5193C378.304 102.173 376.373 104 372.512 104H366.533C362.672 104 360.741 102.173 360.741 98.5193V79.15C360.741 75.4547 362.672 73.607 366.533 73.607ZM366.222 86.4368H372.948V79.8351C372.948 79.1292 372.823 78.6518 372.574 78.4026C372.367 78.1535 371.889 78.0289 371.142 78.0289H368.09C367.343 78.0289 366.844 78.1535 366.595 78.4026C366.346 78.6518 366.222 79.1292 366.222 79.8351V86.4368ZM393.46 97.8965V92.8518C393.46 92.1044 393.336 91.6269 393.086 91.4193C392.837 91.1702 392.339 91.0456 391.592 91.0456H388.415C384.554 91.0456 382.623 89.2187 382.623 85.5649V79.15C382.623 75.4547 384.554 73.607 388.415 73.607H392.962C396.865 73.607 398.816 75.4547 398.816 79.15V82.0772H393.336V79.7105C393.336 78.9632 393.211 78.4857 392.962 78.2781C392.713 78.0289 392.214 77.9044 391.467 77.9044H389.972C389.225 77.9044 388.727 78.0289 388.478 78.2781C388.229 78.4857 388.104 78.9632 388.104 79.7105V84.9421C388.104 85.6895 388.229 86.1877 388.478 86.4368C388.727 86.6444 389.225 86.7482 389.972 86.7482H393.211C397.031 86.7482 398.941 88.5959 398.941 92.2912V98.5193C398.941 102.173 397.01 104 393.149 104H388.54C384.679 104 382.748 102.173 382.748 98.5193V95.5298H388.229V97.8965C388.229 98.6439 388.353 99.1421 388.602 99.3912C388.851 99.5988 389.35 99.7026 390.097 99.7026H391.592C392.339 99.7026 392.837 99.5988 393.086 99.3912C393.336 99.1421 393.46 98.6439 393.46 97.8965ZM424.454 97.6474V88.1184C424.454 87.3711 424.33 86.8936 424.081 86.686C423.873 86.4368 423.396 86.3123 422.648 86.3123H418.04C414.261 86.3123 412.372 84.4646 412.372 80.7693V70.493C412.372 66.8392 414.303 65.0123 418.164 65.0123H424.268C428.129 65.0123 430.06 66.8392 430.06 70.493V76.2228H424.392V71.3649C424.392 70.6175 424.268 70.1401 424.019 69.9325C423.769 69.6833 423.271 69.5588 422.524 69.5588H419.908C419.161 69.5588 418.662 69.6833 418.413 69.9325C418.164 70.1401 418.04 70.6175 418.04 71.3649V80.0219C418.04 80.7693 418.164 81.2675 418.413 81.5167C418.662 81.7243 419.161 81.8281 419.908 81.8281H424.454C428.274 81.8281 430.184 83.655 430.184 87.3088V98.5193C430.184 102.173 428.233 104 424.33 104H418.289C414.427 104 412.497 102.173 412.497 98.5193V92.7895H418.164V97.6474C418.164 98.3947 418.289 98.893 418.538 99.1421C418.787 99.3497 419.285 99.4535 420.033 99.4535H422.648C423.396 99.4535 423.873 99.3497 424.081 99.1421C424.33 98.893 424.454 98.3947 424.454 97.6474ZM440.917 73.607H447.021C450.923 73.607 452.875 75.4547 452.875 79.15V90.5474H440.606V97.7719C440.606 98.4778 440.73 98.9553 440.979 99.2044C441.228 99.4535 441.727 99.5781 442.474 99.5781H445.339C446.086 99.5781 446.585 99.4535 446.834 99.2044C447.083 98.9553 447.207 98.457 447.207 97.7096V95.2184H452.688V98.5193C452.688 102.173 450.757 104 446.896 104H440.917C437.056 104 435.125 102.173 435.125 98.5193V79.15C435.125 75.4547 437.056 73.607 440.917 73.607ZM440.606 86.4368H447.332V79.8351C447.332 79.1292 447.207 78.6518 446.958 78.4026C446.751 78.1535 446.273 78.0289 445.526 78.0289H442.474C441.727 78.0289 441.228 78.1535 440.979 78.4026C440.73 78.6518 440.606 79.1292 440.606 79.8351V86.4368ZM469.028 73.607H474.633V104H469.028V101.571C468.488 103.19 467.201 104 465.166 104H462.924C459.187 104 457.319 102.173 457.319 98.5193V79.15C457.319 75.4547 459.187 73.607 462.924 73.607H465.166C467.201 73.607 468.488 74.4167 469.028 76.036V73.607ZM464.792 99.4535H466.972C467.72 99.4535 468.239 99.2874 468.529 98.9553C468.861 98.6231 469.028 98.0626 469.028 97.2737V80.3333C469.028 79.5444 468.861 78.9839 468.529 78.6518C468.239 78.3196 467.72 78.1535 466.972 78.1535H464.792C464.045 78.1535 463.547 78.2781 463.298 78.5272C463.049 78.7348 462.924 79.2123 462.924 79.9596V97.6474C462.924 98.3947 463.049 98.893 463.298 99.1421C463.547 99.3497 464.045 99.4535 464.792 99.4535ZM490.661 73.5447H491.906V78.4026H489.664C487.049 78.4026 485.741 79.9389 485.741 83.0114V104H480.135V73.607H485.741V77.3439C486.073 76.2643 486.654 75.3716 487.484 74.6658C488.356 73.9184 489.415 73.5447 490.661 73.5447ZM512.165 83.1982H506.622V79.9596C506.622 79.2123 506.498 78.7348 506.249 78.5272C505.999 78.2781 505.501 78.1535 504.754 78.1535H502.076C501.328 78.1535 500.83 78.2781 500.581 78.5272C500.332 78.7348 500.207 79.2123 500.207 79.9596V97.6474C500.207 98.3947 500.332 98.893 500.581 99.1421C500.83 99.3497 501.328 99.4535 502.076 99.4535H504.754C505.501 99.4535 505.999 99.3497 506.249 99.1421C506.498 98.893 506.622 98.3947 506.622 97.6474V94.4088H512.165V98.5193C512.165 102.173 510.214 104 506.311 104H500.394C496.533 104 494.602 102.173 494.602 98.5193V79.15C494.602 75.4547 496.533 73.607 500.394 73.607H506.311C510.214 73.607 512.165 75.4547 512.165 79.15V83.1982ZM526.277 73.607H528.457C532.235 73.607 534.124 75.4547 534.124 79.15V104H528.519V79.9596C528.519 79.2123 528.395 78.7348 528.146 78.5272C527.896 78.2781 527.398 78.1535 526.651 78.1535H524.471C523.724 78.1535 523.184 78.3196 522.852 78.6518C522.561 78.9839 522.416 79.5444 522.416 80.3333V104H516.81V62.3342H522.416V76.036C522.955 74.4167 524.243 73.607 526.277 73.607Z" fill="#E51C44"/>
</svg>
